<svg width="32" height="32" viewBox="0 0 32 32" fill="none" xmlns="http://www.w3.org/2000/svg">
  <!-- Distinguishable Branching Coral Shape -->
  <path
    d="M16 28V20C16 18 14 16 12 15C10 14 8 15 7 13C6 11 8 9 10 9.5C12 10 14 12 16 11"
    stroke="#FF6B6B" stroke-width="3" stroke-linecap="round" stroke-linejoin="round" />
  <path
    d="M16 20C18 18 20 19 21 17C22 15 20 13 18 13.5C16 14 14 16 13 18"
    stroke="#FFA3A3" stroke-width="2.5" stroke-linecap="round" stroke-linejoin="round" />
  <path
    d="M16 11C16 9 17 7 19 7C21 7 22 9 21 11C20 13 18 14 16 15"
    stroke="#FF6B6B" stroke-width="2.5" stroke-linecap="round" stroke-linejoin="round" />
  <path
    d="M21 17L24 18C26 19 27 18 27.5 16C28 14 26 12 24 12.5"
    stroke="#FF8E8E" stroke-width="2" stroke-linecap="round" stroke-linejoin="round" />

  <!-- Small Polyps in Accent Colors -->
  <circle cx="7" cy="13" r="1.5" fill="#FFDADA" />
  <circle cx="27.5" cy="16" r="1.2" fill="#00D9C0" />
  <circle cx="19" cy="7" r="1.2" fill="#FFDADA" />
  <circle cx="10" cy="9.5" r="1" fill="#FF6B6B" />
</svg>