<svg width="32" height="32" viewBox="0 0 32 32" fill="none" xmlns="http://www.w3.org/2000/svg">
  <path
    d="M16 4C17.5 4 18 5.5 16.5 6C14 7 12 10 13 12.5C14 15 17 14 18.5 16C20 18 19 21 16 22C13 23 11 20 10 17C9 14 6 13 4.5 15C3 17 4 20 6 22"
    stroke="#00D9C0" stroke-width="1.5" stroke-linecap="round" stroke-linejoin="round" />
  <path
    d="M16 4C14.5 4 14 5.5 15.5 6C18 7 20 10 19 12.5C18 15 15 14 13.5 16C12 18 13 21 16 22C19 23 21 20 22 17C23 14 26 13 27.5 15C29 17 28 20 26 22"
    stroke="#00D9C0" stroke-width="1.5" stroke-linecap="round" stroke-linejoin="round" />
  <path d="M16 22V28" stroke="#00D9C0" stroke-width="1.5" stroke-linecap="round" />
  <circle cx="16" cy="4" r="1.5" fill="#00D9C0" />
  <circle cx="18.5" cy="16" r="1" fill="#FF6B6B" opacity="0.6" />
  <circle cx="13.5" cy="16" r="1" fill="#FF6B6B" opacity="0.6" />
</svg>